 <svg
    xmlns="http://www.w3.org/2000/svg"
    width="18px"
    height="18px"
    viewBox="0 0 429 429"
    className="lucide lucide-all-tokens"
  >
    <g
      transform="translate(0,429) scale(0.1,-0.1)"
      fill="currentColor"
      stroke="none"
    >
      <path
        d="M173 4279 c-64 -13 -116 -54 -148 -118 -15 -30 -17 -80 -15 -522 0 -309 5 -500 11 -517 61 -159 275 -184 374 -44 l30 44 3 216 3 216 577 -576 c317 -317 591 -583 607 -591 87 -42 176 -27 245 43 70 69 85 158 43 245 -8 17 -274 290 -591 608 l-577 577 195 0 c215 0 247 7 302 66 87 93 71 248 -34 320 l-41 29 -201 2 c-532 7 -758 8 -783 2z"
      />
      <path
        d="M3590 4280 c-456 -5 -466 -5 -495 -27 -120 -85 -140 -227 -47 -327 55 -59 87 -66 302 -66 l195 0 -582 -582 c-634 -636 -609 -607 -601 -719 10 -142 160 -230 296 -174 25 11 216 195 615 593 l577 577 0 -193 c0 -151 3 -201 15 -230 71 -168 319 -169 389 0 13 30 16 111 16 516 1 459 1 482 -18 519 -33 64 -93 106 -162 114 -19 3 -244 2 -500 -1z"
      />
      <path
        d="M1630 1919 c-34 -15 -182 -156 -622 -597 l-578 -577 0 301 c0 332 -2 344 -62 404 -42 43 -85 60 -150 60 -88 0 -167 -53 -197 -134 -6 -14 -11 -273 -12 -620 l-1 -595 26 -45 c16 -28 44 -56 72 -72 l45 -26 597 1 597 2 45 22 c26 13 58 41 75 66 27 39 30 50 30 121 0 71 -3 82 -30 121 -16 23 -50 53 -74 66 -43 23 -49 23 -350 23 l-306 0 577 577 c608 609 617 620 618 708 0 44 -36 131 -66 157 -33 29 -107 58 -149 58 -22 0 -60 -10 -85 -21z"
      />
      <path
        d="M2475 1916 c-27 -13 -58 -32 -67 -42 -29 -33 -58 -107 -58 -149 0 -88 10 -99 617 -707 l577 -577 -310 -3 -311 -3 -41 -27 c-126 -84 -126 -272 0 -356 l41 -27 601 -5 c643 -6 641 -6 694 43 57 53 56 29 53 687 l-2 605 -22 45 c-14 26 -41 57 -66 75 -39 27 -50 30 -121 30 -71 0 -82 -3 -121 -30 -23 -16 -53 -50 -66 -74 -23 -43 -23 -49 -23 -350 l0 -306 -577 577 c-609 608 -620 617 -708 618 -22 0 -62 -11 -90 -24z"
      />
    </g>
  </svg>