<svg
    xmlns="http://www.w3.org/2000/svg"
    width="20px"
    height="20px"
    viewBox="0 0 512 512"
    className="lucide lucide-asterisk"
  >
    <g
      transform="translate(0,512) scale(0.1,-0.1)"
      fill="currentColor"
      stroke="none"
    >
      <path
        d="M2464 5026 c-90 -29 -168 -105 -200 -193 -11 -31 -13 -198 -14 -885 0 -467 -3 -848 -6 -848 -3 0 -328 186 -723 414 -394 228 -735 419 -756 425 -145 40 -299 -29 -365 -164 -21 -41 -25 -65 -25 -135 0 -73 4 -92 27 -136 15 -28 47 -69 72 -90 25 -22 364 -223 755 -448 391 -225 710 -411 708 -412 -1 -1 -324 -187 -717 -414 -405 -233 -731 -428 -753 -448 -108 -104 -123 -272 -36 -398 33 -49 105 -100 163 -115 57 -16 156 -13 198 4 20 8 348 195 730 416 382 220 702 403 711 407 15 5 17 -61 19 -853 l3 -858 23 -43 c31 -58 88 -114 148 -143 39 -19 65 -24 129 -24 134 0 225 59 284 185 l26 55 5 846 5 845 690 -399 c380 -219 714 -410 743 -424 92 -43 215 -32 305 28 158 105 178 338 40 471 -28 26 -1123 669 -1455 854 -14 8 124 91 694 419 783 451 796 460 837 570 89 235 -130 472 -373 404 -22 -6 -359 -195 -750 -421 -390 -226 -716 -412 -723 -415 -10 -4 -13 162 -15 844 l-3 848 -26 55 c-36 76 -80 124 -145 156 -66 32 -167 41 -230 20z"
      />
    </g>
  </svg>