<svg
    xmlns="http://www.w3.org/2000/svg"
    width="24px"
    height="24px"
    viewBox="0 0 512 512"
    className="lucide lucide-camp"
  >
    <path
      d="M0 0 C5.50158104 4.2330328 8.2949935 9.59879909 11.40454102 15.69433594 C12.39328894 17.58607967 13.38416637 19.47671194 14.37719727 21.36621094 C15.09866943 22.74583008 15.09866943 22.74583008 15.8347168 24.15332031 C18.18655818 28.50807423 20.74697734 32.73116023 23.34204102 36.94433594 C26.43825857 34.28393052 28.00498572 31.10404326 29.88891602 27.51855469 C30.57587536 26.23376025 31.26339347 24.94926445 31.95141602 23.66503906 C33.02160178 21.65403871 34.08723816 19.64102095 35.14282227 17.62231445 C43.61101167 1.47685502 43.61101167 1.47685502 51.89672852 -2.18457031 C57.98474649 -3.32223024 62.88230033 -3.23356656 68.34204102 -0.05566406 C72.99986059 4.10310341 75.4238073 8.16853747 76.02954102 14.44433594 C75.91788661 23.89774246 69.93767748 32.00641842 65.34204102 39.94433594 C64.32262728 41.73272373 63.30440795 43.52179286 62.28735352 45.31152344 C61.77906006 46.20025146 61.2707666 47.08897949 60.74707031 48.00463867 C59.72834245 49.79549951 58.71933601 51.59192593 57.72021484 53.39379883 C55.47527812 57.41017446 53.24911933 61.18384226 50.34594727 64.76074219 C47.64636882 68.27960053 45.4118899 71.38053329 45.34204102 75.94433594 C47.51222957 83.57578394 52.14301185 90.25378114 56.3918457 96.86865234 C59.33913605 101.51687015 61.9830307 106.32185026 64.65454102 111.13183594 C65.73514174 113.0375957 66.81720857 114.94252479 67.90063477 116.84667969 C71.72518215 123.60038434 75.47419402 130.39517509 79.21704102 137.19433594 C79.72152771 138.11063278 79.72152771 138.11063278 80.23620605 139.04544067 C80.57309448 139.65733246 80.90998291 140.26922424 81.25708008 140.8996582 C81.93773195 142.13591166 82.61839601 143.37215841 83.29907227 144.60839844 C83.63603119 145.22043625 83.97299011 145.83247406 84.32015991 146.46305847 C89.67721195 156.18910979 95.08147108 165.88901651 100.47875977 175.59277344 C102.36182972 178.97993072 104.24287275 182.3682059 106.12329102 185.75683594 C112.17653434 196.6637636 118.24166098 207.56369191 124.34204102 218.44433594 C131.07731173 230.45737162 137.76820888 242.49477764 144.45092773 254.53710938 C147.57949154 260.17385562 150.71090178 265.80902004 153.84204102 271.44433594 C155.09205484 273.69432826 156.34205483 275.94432826 157.59204102 278.19433594 C158.21079102 279.30808594 158.82954102 280.42183594 159.46704102 281.56933594 C165.09204102 291.69433595 165.09204102 291.69433595 166.96728516 295.06982422 C168.21641607 297.31822733 169.46560221 299.56659976 170.71484375 301.81494141 C173.85359593 307.46412264 176.99136544 313.11384554 180.12719727 318.76464844 C186.17949011 329.66877936 192.2437274 340.56586741 198.34204102 351.44433594 C200.06130115 354.51470787 201.78030521 357.58522307 203.49926758 360.65576172 C204.80191883 362.9804454 206.10584851 365.30437541 207.41137695 367.62744141 C209.17600633 370.76778016 210.93635542 373.91048579 212.6940918 377.0546875 C213.37225396 378.26599195 214.05192536 379.47645277 214.7331543 380.68603516 C215.67700642 382.36238745 216.61513437 384.04195882 217.55297852 385.72167969 C218.3619458 387.16401978 218.3619458 387.16401978 219.18725586 388.63549805 C220.34204102 390.94433594 220.34204102 390.94433594 220.34204102 392.94433594 C221.33534424 392.92338867 222.32864746 392.90244141 223.35205078 392.88085938 C227.0625142 392.80806789 230.77291541 392.76239546 234.48388672 392.72460938 C236.08523192 392.70458247 237.68650481 392.6773524 239.28759766 392.64257812 C241.59889639 392.59366175 243.90922256 392.57127883 246.22094727 392.55371094 C246.92852676 392.5330658 247.63610626 392.51242065 248.36512756 392.4911499 C253.9012128 392.48869086 256.87847711 393.92207693 261.34204102 396.94433594 C265.09750179 400.80129566 267.28843875 404.63290724 267.37719727 410.11621094 C266.92794525 416.64680118 264.75543863 420.59616529 260.02954102 425.19433594 C252.6594983 429.99343352 244.46966017 429.23574149 235.98071289 429.21899414 C234.52307373 429.22334593 233.06543685 429.22853063 231.60780334 429.23448181 C227.66363282 429.24783109 223.71955835 429.24845517 219.77536964 429.24591851 C216.47763983 429.2448463 213.17992926 429.24973842 209.88220358 429.25452393 C202.10106043 429.26560445 194.31996557 429.26606435 186.53881836 429.26000977 C178.52089764 429.25396679 170.50315225 429.26629248 162.48526144 429.28757983 C155.59078909 429.30520908 148.6963725 429.31119522 141.80187845 429.30794209 C137.68866611 429.30613163 133.57557894 429.30874199 129.46238708 429.32265663 C125.59468438 429.3352524 121.72725481 429.3332745 117.8595562 429.32024574 C116.44343917 429.31788443 115.02730281 429.3205987 113.61120796 429.32886887 C98.67764247 429.40976895 98.67764247 429.40976895 92.51025391 424.48019409 C90.31804591 421.59808197 89.13379977 418.15920678 87.77954102 414.82714844 C87.43620728 414.00000336 87.09287354 413.17285828 86.73913574 412.32064819 C85.99306584 410.52086379 85.25040727 408.7196624 84.51074219 406.91723633 C82.91469452 403.02797458 81.3025904 399.14543032 79.69177246 395.26226807 C78.8473819 393.22597292 78.00389058 391.18930467 77.16125488 389.15228271 C72.77784336 378.55907302 68.31289258 368.0008639 63.84204102 357.44433594 C58.9830818 345.9656337 54.14059028 334.48067683 49.35375977 322.97167969 C48.53605911 321.00813482 47.71835088 319.04459312 46.90063477 317.08105469 C45.36336488 313.38897916 43.83160701 309.6946836 42.30297852 305.99902344 C36.9833759 290.29798405 36.9833759 290.29798405 27.34204102 277.94433594 C23.27871659 277.47861189 23.27871659 277.47861189 19.34204102 277.94433594 C16.44387575 280.49961567 14.67774286 282.81705576 13.13500977 286.34277344 C12.72597412 287.26743408 12.31693848 288.19209473 11.89550781 289.14477539 C11.44473877 290.19238037 10.99396973 291.23998535 10.52954102 292.31933594 C10.02656494 293.46942139 9.52358887 294.61950684 9.00537109 295.80444336 C7.09854877 300.17625711 5.21941949 304.55981344 3.34204102 308.94433594 C2.95129395 309.85640808 2.56054688 310.76848022 2.15795898 311.70819092 C-5.68940123 330.03385579 -13.47899655 348.38410435 -21.26672363 366.73516846 C-24.45092565 374.23837186 -27.63702228 381.7407643 -30.82577515 389.24203491 C-32.31784419 392.75433134 -33.80692519 396.26788444 -35.29589844 399.78149414 C-36.21200819 401.93740099 -37.12826039 404.09324732 -38.04467773 406.24902344 C-38.45410614 407.21747696 -38.86353455 408.18593048 -39.28536987 409.18373108 C-46.28596956 425.62171656 -46.28596956 425.62171656 -50.65795898 427.94433594 C-54.04221122 429.02568726 -57.19492602 429.07505787 -60.73503113 429.08477783 C-61.9812323 429.09048798 -63.22743347 429.09619812 -64.51139832 429.1020813 C-65.889923 429.10332658 -67.26844779 429.10445169 -68.64697266 429.10546875 C-70.10092291 429.11009891 -71.55487195 429.11512384 -73.00881958 429.12051392 C-76.95740774 429.13362282 -80.9059789 429.14008019 -84.85458541 429.14452457 C-87.32377268 429.14745838 -89.79295533 429.15156382 -92.26214027 429.15602875 C-99.9940718 429.16970112 -107.72599274 429.17936845 -115.45793551 429.18323064 C-124.37102211 429.18770771 -133.28395507 429.20524033 -142.19699496 429.23423123 C-149.09397766 429.25588251 -155.99091725 429.26593679 -162.88793355 429.26727176 C-167.0035015 429.26831753 -171.11892498 429.27417638 -175.23445702 429.29209137 C-179.10949721 429.30863128 -182.98428527 429.31069905 -186.8593483 429.30195236 C-188.2762412 429.30118508 -189.69314799 429.3054837 -191.11000633 429.31541061 C-208.07871499 429.42726001 -208.07871499 429.42726001 -214.77905273 424.33105469 C-218.75093566 419.2041435 -220.96672001 415.09533829 -220.53295898 408.44433594 C-219.72231532 402.83581291 -217.27973339 399.40788845 -213.09545898 395.63183594 C-208.74760074 392.62178023 -204.7961259 392.81167435 -199.70874023 392.84667969 C-198.9361235 392.84809464 -198.16350677 392.84950958 -197.36747742 392.85096741 C-194.90176509 392.85656128 -192.43614383 392.86911261 -189.97045898 392.88183594 C-188.29793425 392.88685173 -186.6254081 392.8914145 -184.95288086 392.89550781 C-180.85453852 392.9065287 -176.75626419 392.92378909 -172.65795898 392.94433594 C-172.37903809 392.0491626 -172.10011719 391.15398926 -171.81274414 390.23168945 C-170.80325226 387.35794565 -169.69916953 384.97124474 -168.18139648 382.34667969 C-167.68397949 381.47817383 -167.1865625 380.60966797 -166.67407227 379.71484375 C-166.13250488 378.77995117 -165.5909375 377.84505859 -165.03295898 376.88183594 C-163.84926519 374.81362737 -162.66704171 372.74457679 -161.48608398 370.67480469 C-160.54925781 369.03390869 -160.54925781 369.03390869 -159.59350586 367.35986328 C-156.27245439 361.49943063 -153.02859687 355.59672241 -149.78295898 349.69433594 C-148.42260512 347.22280376 -147.06180023 344.75152007 -145.70092773 342.28027344 C-145.36391342 341.66814499 -145.02689911 341.05601654 -144.67967224 340.42533875 C-139.32273902 330.69934461 -133.91847665 320.99956139 -128.52124023 311.29589844 C-126.63817028 307.90874116 -124.75712725 304.52046597 -122.87670898 301.13183594 C-116.25026959 289.19210524 -109.60308345 277.26446495 -102.92504883 265.35351562 C-96.76967225 254.36954587 -90.65863512 243.36106091 -84.54907227 232.3515625 C-81.42050846 226.71481625 -78.28909822 221.07965184 -75.15795898 215.44433594 C-73.90794516 213.19434362 -72.65794517 210.94434361 -71.40795898 208.69433594 C-68.90795898 204.19433594 -66.40795898 199.69433594 -63.90795898 195.19433594 C-63.28912842 194.0804248 -62.67029785 192.96651367 -62.03271484 191.81884766 C-60.78358393 189.57044455 -59.53439779 187.32207211 -58.28515625 185.07373047 C-55.14640407 179.42454924 -52.00863456 173.77482633 -48.87280273 168.12402344 C-42.82051155 157.21989551 -36.75686671 146.32246949 -30.65795898 135.44433594 C-27.04199899 128.99428666 -23.43083671 122.54164722 -19.83374023 116.08105469 C-19.1939624 114.9325 -18.55418457 113.78394531 -17.89501953 112.60058594 C-16.62329296 110.30847747 -15.35770862 108.01294914 -14.09863281 105.71386719 C-11.20881136 100.44750996 -8.26911251 95.25955629 -5.05639648 90.18261719 C-4.51200928 89.29227783 -3.96762207 88.40193848 -3.40673828 87.48461914 C-2.4013861 85.84885848 -1.36068183 84.23404943 -0.27832031 82.64819336 C1.12639205 80.31596262 1.96471114 78.64532917 2.34204102 75.94433594 C0.99447039 71.86502434 -1.3219874 68.52438505 -3.65795898 64.94433594 C-4.788646 62.8888104 -5.89902397 60.82199729 -6.98999023 58.74511719 C-12.92373229 47.68206536 -18.87704814 36.6383017 -25.08374023 25.72558594 C-28.1197372 20.36174018 -28.12688646 16.07512847 -27.65795898 9.94433594 C-25.92609328 4.74873883 -23.13328777 2.04264048 -18.65795898 -1.05566406 C-12.51050777 -3.77472902 -5.7685407 -3.67297452 0 0 Z "
      fill="currentColor"
      transform="translate(232.657958984375,43.0556640625)"
    />
  </svg>