<svg
  xmlns="http://www.w3.org/2000/svg"
  width="22px"
  height="22px"
  viewBox="0 0 454 454"
  className="lucide lucide-change-team"
>
  <path 
    d="M0 0 C0.8559375 0.43699219 1.711875 0.87398438 2.59375 1.32421875 C3.6146875 1.83339844 4.635625 2.34257813 5.6875 2.8671875 C20.18561748 10.70837233 28.86089663 22.6243772 33.59375 38.32421875 C37.48482957 52.12295743 34.67017894 67.73480749 28.21875 80.19921875 C25.77301161 84.32116414 22.82416836 87.79329636 19.59375 91.32421875 C20.59341797 92.03384766 20.59341797 92.03384766 21.61328125 92.7578125 C24.62703923 94.92013116 27.61396513 97.1153235 30.59375 99.32421875 C31.52703125 100.01 32.4603125 100.69578125 33.421875 101.40234375 C50.6657775 114.70478282 60.86618618 134.08745728 64.59375 155.32421875 C65.25661288 161.28792545 65.2790162 167.24956186 65.19067383 173.24316406 C65.1558797 175.85198319 65.17023407 178.45748028 65.18945312 181.06640625 C65.17740221 195.29870194 62.53203557 206.75025016 52.59375 217.484375 C42.96020223 226.68785367 32.77697514 229.46334089 19.83740234 229.5012207 C18.37051468 229.5110775 18.37051468 229.5110775 16.87399292 229.52113342 C13.64255693 229.540818 10.41116734 229.55251923 7.1796875 229.5625 C5.51917799 229.56861329 5.51917799 229.56861329 3.82512283 229.57485008 C-2.03601646 229.59569172 -7.89713248 229.61000085 -13.75830078 229.61938477 C-19.79384068 229.6304359 -25.82901058 229.66482674 -31.86441994 229.70455647 C-36.52119606 229.73077731 -41.1778848 229.73908155 -45.83472824 229.74266624 C-48.05853139 229.74751922 -50.28233097 229.75909613 -52.50606155 229.77770424 C-69.93848368 229.91449406 -82.69296049 228.2511323 -96.09375 216.19921875 C-103.84065422 208.1272696 -106.5477141 198.3531776 -106.64453125 187.52734375 C-106.652603 186.66091248 -106.66067474 185.7944812 -106.66899109 184.90179443 C-106.68281597 183.06264227 -106.69354526 181.22346462 -106.70141602 179.38427734 C-106.71283996 177.53231101 -106.73313607 175.68037503 -106.76293945 173.82861328 C-107.00506882 158.76248546 -105.9789973 144.53621396 -98.65625 131.01171875 C-98.31118408 130.35276611 -97.96611816 129.69381348 -97.6105957 129.01489258 C-89.61172036 114.11573885 -78.22838999 101.62747213 -63.40625 93.32421875 C-62.74625 93.32421875 -62.08625 93.32421875 -61.40625 93.32421875 C-63.37058141 89.94485225 -65.49844686 86.82280735 -67.84375 83.69921875 C-75.89521698 72.14859101 -78.454042 57.95340221 -76.84375 44.07421875 C-74.18460949 29.18641935 -66.46892938 15.46707149 -54.0234375 6.6328125 C-38.48265707 -3.08626491 -17.49455781 -7.33227791 0 0 Z "
    fill="currentColor"
    transform="translate(106.40625,2.67578125)"
  />
  <path
    d="M0 0 C11.82802303 11.17647938 17.92539811 25.73636309 18.75 41.875 C18.46552147 56.56345448 13.52955159 68.22053227 4.75 79.875 C4.09 80.865 3.43 81.855 2.75 82.875 C3.46929687 83.13410156 4.18859375 83.39320313 4.9296875 83.66015625 C23.58457539 91.69571045 35.72952545 110.10822714 43.4609375 128.03515625 C47.61703652 139.73674705 48.28123884 150.83601119 48.25097656 163.14086914 C48.25000026 165.93674554 48.29184081 168.72990527 48.3359375 171.52539062 C48.43188908 185.86414052 46.00553682 197.17264519 35.75 207.875 C28.85891292 214.06037334 20.72230713 218.96060413 11.28759766 219.02890015 C10.39912643 219.03750061 9.51065521 219.04610107 8.59526062 219.05496216 C7.62796524 219.05922211 6.66066986 219.06348206 5.6640625 219.06787109 C4.12665154 219.08013733 4.12665154 219.08013733 2.55818176 219.09265137 C-0.83620628 219.11747525 -4.23055246 219.13401709 -7.625 219.1484375 C-8.78683807 219.15376118 -9.94867615 219.15908485 -11.14572144 219.16456985 C-17.29977763 219.19129308 -23.45381363 219.21066748 -29.60791016 219.22509766 C-34.68849778 219.23841612 -39.76868182 219.26623216 -44.84912109 219.30712891 C-50.99405637 219.35659065 -57.13862661 219.38123592 -63.28375244 219.38832474 C-65.6183877 219.39501539 -67.95301551 219.41017994 -70.28753662 219.43421555 C-86.37253949 219.59032494 -98.24785851 219.05558623 -110.9921875 208.17578125 C-119.48144402 199.52496449 -123.7301866 189.03303409 -123.68359375 177.02734375 C-123.6888356 176.2123793 -123.69407745 175.39741486 -123.69947815 174.55775452 C-123.70585749 172.84263233 -123.70461483 171.12746615 -123.69604492 169.41235352 C-123.68759837 166.84242866 -123.71624912 164.27478078 -123.74804688 161.70507812 C-123.85100833 137.30394704 -115.5014903 115.07187213 -98.7109375 97.19140625 C-92.47845134 91.32495499 -85.37199545 86.58079255 -78.25 81.875 C-78.68570313 81.36453125 -79.12140625 80.8540625 -79.5703125 80.328125 C-91.47754241 65.79202615 -94.74252428 51.22558601 -93.25 32.875 C-92.41642929 28.26194392 -91.10665469 24.17216306 -89.25 19.875 C-88.86070312 18.946875 -88.47140625 18.01875 -88.0703125 17.0625 C-80.7738076 1.865046 -68.048232 -6.2121303 -52.828125 -12.0546875 C-34.66427372 -17.19407178 -14.38922036 -11.47711624 0 0 Z "
    fill="currentColor"
    transform="translate(406.25,235.125)"
  />
  <path
    d="M0 0 C3.88446678 2.58964452 6.69907021 5.64814041 8.8125 9.875 C9.03214725 11.54745951 9.20562288 13.22609764 9.35546875 14.90625 C12.03962114 42.32494172 20.1529952 65.99492164 41.76342773 84.28808594 C55.37490421 95.25687311 71.37751309 102.24812248 88.8125 103.875 C88.37381592 103.45202637 87.93513184 103.02905273 87.4831543 102.59326172 C85.48074444 100.65360092 83.4903811 98.70199909 81.5 96.75 C80.80970703 96.08484375 80.11941406 95.4196875 79.40820312 94.734375 C75.109551 90.49802218 71.46380472 86.70620424 70.4140625 80.53125 C70.474928 74.93162412 71.08002235 70.56375801 75.27734375 66.43359375 C79.3611804 62.92888308 81.75664409 61.7002203 87.0625 61.5625 C87.99578125 61.52511719 88.9290625 61.48773438 89.890625 61.44921875 C96.88969548 62.46913677 101.95726654 68.60918798 106.875 73.3125 C107.6187085 74.01753662 108.36241699 74.72257324 109.12866211 75.44897461 C114.33258271 80.402991 119.43149863 85.45318521 124.48168945 90.56323242 C127.83197664 93.94011341 131.29026569 97.10862967 134.90234375 100.19921875 C148.21979854 111.88263001 148.21979854 111.88263001 149.1171875 119.44140625 C149.46206728 126.89689571 147.72616448 131.56862909 142.79008484 137.16999817 C140.23331804 139.83410506 137.63186357 142.44510122 135.0078125 145.04296875 C134.04090073 146.00936081 133.07450953 146.97627397 132.10861206 147.94367981 C130.09092583 149.96127674 128.0682137 151.97364623 126.04150391 153.98217773 C123.45525729 156.54572369 120.8802462 159.12021169 118.30870247 161.69849682 C116.31699348 163.69356074 114.32030323 165.68357756 112.32201767 167.67205238 C110.91174117 169.07665644 109.5049204 170.48472746 108.09817505 171.89286804 C96.4520729 183.4110111 96.4520729 183.4110111 88.18359375 183.96875 C83.35482611 183.77782673 78.86703512 182.67027236 75.171875 179.44140625 C71.98512069 175.76931292 70.6578322 172.4754882 70.4375 167.6875 C70.38851562 166.97207031 70.33953125 166.25664062 70.2890625 165.51953125 C71.77891998 157.99241546 77.76005354 152.5721121 83.125 147.5 C84.39628266 146.28840794 85.66345295 145.07248109 86.92578125 143.8515625 C87.48048096 143.32643066 88.03518066 142.80129883 88.60668945 142.26025391 C90.03135457 140.92966776 90.03135457 140.92966776 89.8125 138.875 C88.6265625 138.71644531 87.440625 138.55789063 86.21875 138.39453125 C52.08205436 133.58784594 22.91358176 118.12569583 1.15625 91.0703125 C-15.04672414 68.98025775 -26.17778592 40.68662696 -24.1875 12.875 C-22.30469004 6.83018908 -19.43681415 2.71920533 -13.875 -0.4375 C-8.87057233 -1.71770243 -4.81073227 -1.69790551 0 0 Z "
    fill="currentColor"
    transform="translate(102.1875,264.125)"
  />
  <path
    d="M0 0 C3.7286692 2.38054624 5.85641079 5.17774018 7.25 9.375 C8.19063532 14.8539583 7.55339757 18.61046567 4.640625 23.44384766 C1.86247149 27.30185226 -1.58956941 30.51956658 -5 33.8125 C-5.74507813 34.54404297 -6.49015625 35.27558594 -7.2578125 36.02929688 C-9.08186072 37.81826725 -10.91255817 39.59980646 -12.75 41.375 C-12.17781738 41.46475098 -11.60563477 41.55450195 -11.01611328 41.64697266 C25.53983198 47.50730886 57.42595189 62.61190499 79.6875 93.3125 C92.83701739 112.20520725 101.33052818 135.31464687 102.25 158.375 C102.34474609 159.66470703 102.34474609 159.66470703 102.44140625 160.98046875 C102.72314894 166.98794991 101.79616203 171.43773904 98.25 176.375 C93.17752096 181.08515911 89.85057703 181.73708216 83.078125 181.6484375 C78.69738283 181.22488508 76.71368661 180.13181179 73.25 177.375 C69.00638805 171.44340858 68.44607686 166.09156827 67.8125 158.9375 C64.99692122 133.0290809 54.39296437 111.30878853 34.01953125 94.5390625 C21.49445753 85.26589234 4.1625957 76.375 -11.75 76.375 C-10.99323975 77.10819458 -10.99323975 77.10819458 -10.22119141 77.85620117 C-7.93121649 80.08366468 -5.65308046 82.32287588 -3.375 84.5625 C-2.5809375 85.33142578 -1.786875 86.10035156 -0.96875 86.89257812 C-0.20820313 87.64345703 0.55234375 88.39433594 1.3359375 89.16796875 C2.3885376 90.19700317 2.3885376 90.19700317 3.46240234 91.24682617 C6.77854564 95.19476677 7.72402717 99.10600751 7.55859375 104.25390625 C6.76040681 109.74017849 4.46945721 113.35878566 0.25 116.875 C-4.68214982 119.26118048 -10.43766765 119.32688037 -15.75 118.375 C-20.64431521 115.68023249 -24.29230951 112.04794264 -28.125 108.0625 C-31.41923671 104.65926281 -34.72391814 101.35417523 -38.328125 98.27734375 C-43.9180491 93.44870641 -49.12264604 88.22512302 -54.35205078 83.01318359 C-56.13523325 81.23982311 -57.92881391 79.47741234 -59.72265625 77.71484375 C-60.86523817 76.57878321 -62.00718835 75.44208688 -63.1484375 74.3046875 C-63.68173676 73.78373505 -64.21503601 73.26278259 -64.76449585 72.7260437 C-68.86600884 68.59964218 -71.0059703 64.90348511 -71.1875 59.0625 C-70.75812311 49.07347773 -62.11713815 42.26765625 -55.48046875 35.63671875 C-54.47516073 34.62429395 -53.4701459 33.61157795 -52.46540833 32.59858704 C-50.36838255 30.48818843 -48.26560006 28.38373401 -46.15893555 26.28295898 C-43.47228965 23.60222116 -40.80438996 20.90363791 -38.14095592 18.19986248 C-36.07430225 16.10725932 -33.99618088 14.02633925 -31.91469765 11.94849586 C-30.92644627 10.95856197 -29.9421272 9.96468488 -28.9620266 8.96668053 C-20.36371159 0.22861991 -12.13207852 -5.97550136 0 0 Z "
    fill="currentColor"
    transform="translate(271.75,8.625)"
  />
</svg>