<svg
  xmlns="http://www.w3.org/2000/svg"
  width="24"
  height="24"
  viewBox="0 0 24 24"
  fill="none"
>
  <path
    d="M16.5605 1.47656C20.01 1.47668 22.7207 4.16608 22.7207 7.61426C22.7207 8.86674 22.374 10.0498 21.749 11.2295C21.063 10.9125 20.3186 10.6999 19.5361 10.6123C20.1497 9.58252 20.4805 8.59871 20.4805 7.61426C20.4805 5.38245 18.8004 3.70812 16.5605 3.70801C14.8358 3.70801 13.1552 4.82417 12.5615 6.3418H10.4785C9.88483 4.82432 8.2051 3.70808 6.48047 3.70801C4.24047 3.70801 2.56055 5.38237 2.56055 7.61426C2.56056 10.8393 6.07747 14.0194 11.3975 18.8291L11.5205 18.9414L11.5654 18.8965C11.655 19.7446 11.9009 20.5481 12.2705 21.2734L11.5205 21.9541L9.89648 20.4814C4.12849 15.27 0.320322 11.8214 0.320312 7.61426C0.320312 4.166 3.03087 1.47656 6.48047 1.47656C8.42921 1.47661 10.2997 2.38064 11.5205 3.79785C12.7413 2.38062 14.6118 1.47656 16.5605 1.47656Z"
    fill="currentColor"
  />
  <path
    d="M20.6447 16.7831V14.8701C20.6447 14.3627 20.4424 13.8761 20.0823 13.5173C19.7223 13.1586 19.2339 12.957 18.7247 12.957C18.2155 12.957 17.7271 13.1586 17.367 13.5173C17.007 13.8761 16.8047 14.3627 16.8047 14.8701V16.7831"
    stroke="currentColor"
    stroke-width="2"
    stroke-linecap="round"
    stroke-linejoin="round"
  />
  <path
    d="M21.6028 16.7812H15.8428C15.3126 16.7812 14.8828 17.2095 14.8828 17.7378V20.6073C14.8828 21.1356 15.3126 21.5639 15.8428 21.5639H21.6028C22.133 21.5639 22.5628 21.1356 22.5628 20.6073V17.7378C22.5628 17.2095 22.133 16.7812 21.6028 16.7812Z"
    stroke="currentColor"
    stroke-width="2"
    stroke-linecap="round"
    stroke-linejoin="round"
  />
</svg>
