<svg
    xmlns="http://www.w3.org/2000/svg"
    width="18px"
    height="18px"
    viewBox="0 0 512 512"
    className="lucide lucide-leaf"
  >
    <g
      transform="translate(0,512) scale(0.1,-0.1)"
      fill="currentColor"
      stroke="none"
    >
      <path
        d="M2771 5109 c-14 -5 -288 -172 -609 -371 l-584 -361 -106 105 c-118 117 -134 128 -187 128 -40 0 -68 -12 -101 -42 -12 -10 -169 -275 -350 -588 l-329 -568 -46 43 c-106 99 -220 76 -275 -54 -43 -102 -107 -316 -133 -448 -128 -637 -4 -1291 346 -1828 69 -105 179 -251 207 -275 16 -12 48 17 317 286 l299 299 0 660 c0 629 1 662 20 702 20 46 64 79 117 89 47 9 121 -30 145 -76 17 -32 18 -71 18 -555 l0 -520 395 395 395 395 0 650 c0 444 4 663 11 690 15 52 67 101 118 110 54 9 123 -22 151 -67 19 -32 20 -49 20 -558 l0 -525 423 421 c232 232 433 429 447 438 34 22 117 21 154 -3 15 -10 37 -32 47 -47 24 -37 25 -120 3 -154 -9 -14 -206 -215 -438 -447 l-421 -423 525 0 c509 0 526 -1 558 -20 45 -28 76 -97 67 -151 -9 -51 -58 -103 -110 -118 -27 -7 -246 -11 -690 -11 l-650 0 -395 -395 -395 -395 520 0 c489 0 522 -1 555 -19 46 -24 85 -97 76 -143 -10 -54 -43 -98 -89 -118 -40 -19 -73 -20 -702 -20 l-660 0 -300 -301 -300 -300 40 -36 c71 -63 217 -168 325 -233 638 -385 1430 -455 2136 -190 119 45 158 74 176 132 16 53 -3 109 -57 167 l-43 46 568 328 c313 181 577 338 588 350 30 34 42 62 42 102 0 53 -11 69 -127 187 l-106 106 363 586 c199 322 366 601 372 620 22 71 6 99 -128 236 -84 86 -124 134 -124 149 0 12 48 412 106 889 87 717 103 873 94 904 -12 42 -66 93 -107 102 -16 4 -417 -41 -893 -99 -476 -58 -876 -105 -889 -105 -18 0 -57 32 -146 119 -142 141 -179 160 -254 130z"
      /> 
    </g>
  </svg>