<svg
    xmlns="http://www.w3.org/2000/svg"
    width="19px"
    height="19px"
    viewBox="0 0 512 512"
    className="lucide lucide-lightning"
  >
    <g
      transform="translate(0,512) scale(0.1,-0.1)"
      fill="currentColor"
      stroke="none"
    >
      <path
        d="M3113 5053 c-17 -10 -540 -553 -1162 -1208 -904 -951 -1133 -1198 -1143 -1229 -10 -33 -9 -43 8 -74 17 -33 50 -51 414 -229 217 -106 399 -194 404 -196 6 -2 -343 -428 -773 -947 -431 -518 -791 -956 -799 -972 -20 -41 -8 -91 29 -122 61 -52 49 -56 478 161 218 111 1076 542 1906 959 1007 505 1519 767 1538 787 39 41 38 99 -2 135 -16 15 -259 139 -541 276 -398 195 -508 252 -498 261 7 7 468 310 1023 675 556 365 1018 670 1029 679 10 9 25 31 33 49 18 43 3 94 -35 120 -26 18 -1555 759 -1752 849 -52 23 -102 43 -110 43 -8 0 -29 -8 -47 -17z"
      />
    </g>
  </svg>