<svg width="32" height="32" viewBox="0 0 32 32" fill="none" xmlns="http://www.w3.org/2000/svg">
<path d="M25.3333 2.66797H6.66667C5.95942 2.66797 5.28115 2.94892 4.78105 3.44902C4.28095 3.94911 4 4.62739 4 5.33464V24.0013C4 24.7085 4.28095 25.3868 4.78105 25.8869C5.28115 26.387 5.95942 26.668 6.66667 26.668H12L16 30.668L20 26.668H25.3333C26.0406 26.668 26.7189 26.387 27.219 25.8869C27.719 25.3868 28 24.7085 28 24.0013V5.33464C28 4.62739 27.719 3.94911 27.219 3.44902C26.7189 2.94892 26.0406 2.66797 25.3333 2.66797ZM18.5067 17.1746L16 22.668L13.4933 17.1746L8 14.668L13.4933 12.1613L16 6.66797L18.5067 12.1613L24 14.668" fill="url(#paint0_linear_2645_9987)"/>
<defs>
<linearGradient id="paint0_linear_2645_9987" x1="5.87013" y1="0.391601" x2="25.2126" y2="34.1026" gradientUnits="userSpaceOnUse">
<stop stop-color="#7FD9FE"/>
<stop offset="0.821208" stop-color="#E980FB"/>
</linearGradient>
</defs>
</svg>
