<svg
    xmlns="http://www.w3.org/2000/svg"
    width="20px"
    height="20px"
    viewBox="0 0 450 450"
    className="lucide lucide-pin-off"
  >
    <g
      transform="translate(0,450) scale(0.1,-0.1)"
      fill="currentColor"
      stroke="none"
    >
      <path
        d="M1320 4469 c-44 -18 -90 -59 -112 -102 -32 -61 -32 -213 -1 -273 32 -59 60 -79 241 -169 l162 -80 0 -155 0 -155 954 -954 c947 -947 953 -953 960 -921 11 57 7 410 -6 454 -10 34 -61 91 -320 351 l-308 311 0 535 0 534 162 80 c181 90 209 110 241 169 18 34 22 58 22 136 0 83 -3 101 -25 140 -14 24 -45 58 -68 75 l-44 30 -916 2 c-589 1 -926 -2 -942 -8z"
      />
      <path
        d="M154 4320 c-119 -28 -184 -164 -130 -270 10 -19 334 -351 719 -737 l701 -703 -225 -227 c-185 -187 -227 -235 -237 -269 -15 -52 -16 -414 -1 -467 13 -49 63 -105 114 -128 37 -17 76 -19 493 -19 l452 0 0 -432 0 -433 102 -307 c57 -170 105 -308 108 -308 3 0 51 138 108 308 l102 307 0 433 0 432 48 0 47 0 680 -681 c378 -378 700 -692 725 -707 125 -75 283 15 283 162 0 28 -7 65 -16 81 -18 34 -3921 3938 -3952 3953 -31 15 -87 21 -121 12z"
      />
    </g>
  </svg>