<svg
    xmlns="http://www.w3.org/2000/svg"
    width="20px"
    height="20px"
    viewBox="0 0 450 450"
    className="lucide lucide-pin-on"
  >
    <g
      transform="translate(0,450) scale(0.1,-0.1)"
      fill="currentColor"
      stroke="none"
    >
      <path
        d="M1320 4469 c-44 -18 -90 -59 -112 -102 -32 -61 -32 -213 -1 -273 32 -59 60 -79 241 -169 l162 -80 0 -534 0 -535 -308 -311 c-259 -260 -310 -317 -320 -351 -15 -52 -16 -414 -1 -467 13 -49 63 -105 114 -128 37 -17 76 -19 493 -19 l452 0 0 -432 0 -433 102 -307 c57 -170 105 -308 108 -308 3 0 51 138 108 308 l102 307 0 433 0 432 453 0 c416 0 455 2 492 19 51 23 101 79 114 128 15 53 14 415 -1 467 -10 34 -61 91 -320 351 l-308 311 0 535 0 534 162 80 c181 90 209 110 241 169 18 34 22 58 22 136 0 83 -3 101 -25 140 -14 24 -45 58 -68 75 l-44 30 -916 2 c-589 1 -926 -2 -942 -8z"
      />
    </g>
  </svg>