<svg  
    xmlns="http://www.w3.org/2000/svg"
    width="18px"
    height="18px"
    viewBox="0 0 512 512"
    fill="currentColor"
    className="lucide lucide-question-mark"
  >
    <g>
      <path
        fill="currentColor"
        d="M 249.5,11.5 C 300.408,9.61797 342.908,27.2846 377,64.5C 414.541,113.523 419.874,165.856 393,221.5C 375.121,249.046 352.288,271.546 324.5,289C 318.768,293.387 314.602,298.887 312,305.5C 310.578,314.985 308.578,324.318 306,333.5C 301.793,340.71 295.626,345.21 287.5,347C 271.5,347.667 255.5,347.667 239.5,347C 227.488,343.652 220.321,335.819 218,323.5C 216.642,283.541 230.475,250.041 259.5,223C 270.988,214.09 282.655,205.423 294.5,197C 302.312,190.181 308.812,182.348 314,173.5C 322.947,148.011 316.447,127.511 294.5,112C 271.971,100.606 248.971,99.6056 225.5,109C 211.736,116.097 202.236,126.931 197,141.5C 195.333,147.833 193.667,154.167 192,160.5C 188.21,169.153 181.71,174.653 172.5,177C 156.167,177.667 139.833,177.667 123.5,177C 109.488,173.022 101.822,163.688 100.5,149C 106.947,100.737 129.947,62.7373 169.5,35C 194.276,20.3484 220.943,12.5151 249.5,11.5 Z"
      />
      <path
        fill="currentColor"
        d="M 257.5,390.5 C 279.682,389.507 296.849,398.174 309,416.5C 322.564,443.542 318.397,467.376 296.5,488C 274.167,503.333 251.833,503.333 229.5,488C 205.375,465.085 202.208,439.585 220,411.5C 229.884,399.645 242.384,392.645 257.5,390.5 Z"
      />
    </g>
  </svg>