<svg
    xmlns="http://www.w3.org/2000/svg"
    width="24px"
    height="24px"
    viewBox="0 0 480 480"
    fill="none"
    className="lucide lucide-strangers"
  >
    <g>
      <path
        fill="currentColor"
        d="M -0.5,381.5 C -0.5,371.167 -0.5,360.833 -0.5,350.5C 8.12469,303.799 34.458,271.299 78.5,253C 86.0077,250.386 93.6744,248.386 101.5,247C 58.4683,225.12 38.635,189.953 42,141.5C 50.6223,92.2114 79.4556,62.7114 128.5,53C 178.587,48.6186 214.754,68.7853 237,113.5C 251.847,153.414 245.847,189.748 219,222.5C 209.167,232.997 197.667,241.164 184.5,247C 237.806,257.973 271.306,289.806 285,342.5C 288.214,357.191 288.214,371.858 285,386.5C 276.828,409.006 260.995,422.506 237.5,427C 174.5,427.667 111.5,427.667 48.5,427C 22.9466,421.609 6.61329,406.442 -0.5,381.5 Z"
      />
      <path
        fill="currentColor"
        d="M 365.5,65.5 C 394.538,62.5627 418.705,71.8961 438,93.5C 462.016,131.909 456.849,166.076 422.5,196C 416.551,199.56 411.051,203.726 406,208.5C 403.817,215.124 401.817,221.791 400,228.5C 398.269,230.617 396.102,232.117 393.5,233C 361.735,241.238 350.402,229.904 359.5,199C 365.412,181.75 376.412,168.75 392.5,160C 396.702,156.133 400.535,151.967 404,147.5C 409.226,124.861 400.059,112.861 376.5,111.5C 357.717,112.111 346.883,121.778 344,140.5C 342.108,144.058 339.275,146.558 335.5,148C 299.435,154.686 289.268,141.52 305,108.5C 317.602,83.381 337.769,69.0477 365.5,65.5 Z"
      />
      <path
        fill="currentColor"
        d="M 376.5,254.5 C 397.099,255.93 406.932,266.93 406,287.5C 401.262,303.791 390.428,310.957 373.5,309C 356.13,303.288 349.296,291.455 353,273.5C 357.378,262.747 365.211,256.413 376.5,254.5 Z"
      />
    </g>
  </svg>