<svg
    xmlns="http://www.w3.org/2000/svg"
    width="23px"
    height="23px"
    viewBox="0 0 440 440"
    className="lucide lucide-swap"
  >
    <g
      transform="translate(0,440) scale(0.1,-0.1)"
      fill="currentColor"
      stroke="none"
    >
    <path
      d="M2044 3900 c-745 -72 -1363 -622 -1513 -1347 -17 -81 -40 -279 -41 -340 0 -10 -47 -13 -202 -13 -184 0 -206 -2 -235 -20 -37 -22 -54 -69 -41 -115 9 -33 602 -635 652 -662 62 -32 70 -26 414 319 177 176 324 329 328 340 10 33 -5 83 -32 109 -25 24 -29 24 -241 27 l-216 3 7 91 c24 314 147 581 375 809 146 147 293 240 481 307 152 53 237 67 425 66 190 -1 250 -11 428 -71 102 -34 111 -35 160 -24 101 22 167 104 167 206 0 94 -50 164 -144 205 -205 87 -529 133 -772 110z"
    />
    <path
      d="M3650 2999 c-25 -10 -567 -543 -623 -614 -43 -53 -45 -112 -4 -152 l27 -28 217 -3 216 -3 -7 -91 c-24 -313 -149 -584 -375 -809 -151 -151 -290 -239 -481 -307 -149 -52 -237 -66 -420 -66 -185 0 -265 13 -431 70 -109 37 -124 39 -180 23 -89 -27 -149 -109 -149 -204 0 -103 53 -169 172 -215 91 -35 240 -74 353 -91 128 -20 389 -15 529 10 687 122 1234 652 1376 1334 16 75 40 274 40 335 0 9 47 12 203 12 183 0 205 2 234 20 37 22 54 69 41 115 -9 33 -602 635 -650 661 -31 16 -53 17 -88 3z"
    />
    </g>
  </svg>