<svg
    xmlns="http://www.w3.org/2000/svg"
    width="24px"
    height="32px"
    viewBox="0 0 514 694"
    className="lucide lucide-vertical-align-top"
  >
    <g
      transform="translate(0,694) scale(0.1,-0.1)"
      fill="currentColor"
      stroke="none"
    >
      <path
        d="M240 6930 c-100 -5 -137 -18 -176 -62 -38 -41 -54 -85 -54 -148 0 -91 37 -152 115 -192 39 -20 47 -21 2445 -20 2391 0 2407 0 2446 20 77 40 114 102 114 192 0 93 -48 168 -127 199 -25 10 -514 13 -2350 14 -1275 1 -2361 0 -2413 -3z"
      />
      <path
        d="M2325 6019 c-473 -48 -916 -222 -1305 -512 -122 -92 -395 -365 -487 -487 -274 -368 -439 -770 -505 -1235 -17 -118 -17 -512 0 -630 66 -465 231 -867 505 -1235 93 -123 365 -395 490 -489 364 -271 769 -437 1232 -503 118 -17 512 -16 635 0 473 65 897 245 1275 540 39 30 138 123 220 206 224 225 345 395 485 681 122 247 200 505 242 800 17 118 17 512 0 630 -66 463 -232 868 -503 1232 -94 125 -366 397 -489 489 -365 273 -752 434 -1195 500 -122 18 -477 26 -600 13z m595 -373 c757 -130 1377 -617 1679 -1321 220 -514 228 -1139 20 -1662 -39 -99 -137 -291 -190 -374 -48 -75 -162 -229 -169 -229 -3 0 -51 55 -107 123 -175 211 -288 309 -453 392 -158 80 -293 111 -516 122 l-144 6 77 44 c309 176 512 467 569 813 21 122 13 320 -16 438 -135 550 -655 921 -1210 863 -652 -68 -1110 -663 -1005 -1306 56 -347 276 -654 586 -817 l65 -35 -146 -6 c-225 -10 -361 -42 -520 -122 -165 -83 -278 -181 -453 -392 -56 -68 -104 -123 -107 -123 -9 0 -139 181 -187 259 -147 242 -241 492 -295 786 -30 162 -33 542 -5 706 166 987 937 1727 1927 1848 113 14 488 6 600 -13z"
      />
    </g>
  </svg>